HIERARCHY
ROOT Hips
{
    OFFSET 0.000000 0.000000 0.000000
    CHANNELS 6 Xposition Yposition Zposition Zrotation Xrotation Yrotation
    JOINT Spine
    {
        OFFSET -0.000000 7.236184 0.000000
        CHANNELS 3 Zrotation Xrotation Yrotation
        JOINT Spine1
        {
            OFFSET -0.000000 20.420147 0.000000
            CHANNELS 3 Zrotation Xrotation Yrotation
            JOINT Neck
            {
                OFFSET -0.000000 20.336288 1.848754
                CHANNELS 3 Zrotation Xrotation Yrotation
                JOINT Head
                {
                    OFFSET -0.000000 12.354461 -1.764923
                    CHANNELS 3 Zrotation Xrotation Yrotation
                    End Site
                    {
                        OFFSET -0.000000 22.061537 0.000000
                    }
                }
            }
            JOINT LeftShoulder
            {
                OFFSET 3.573296 18.396038 -0.314103
                CHANNELS 3 Zrotation Xrotation Yrotation
                JOINT LeftArm
                {
                    OFFSET 10.880760 0.000000 0.000000
                    CHANNELS 3 Zrotation Xrotation Yrotation
                    JOINT LeftForeArm
                    {
                        OFFSET 27.185530 0.000000 0.000000
                        CHANNELS 3 Zrotation Xrotation Yrotation
                        JOINT LeftHand
                        {
                            OFFSET 27.825975 0.000000 0.000000
                            CHANNELS 3 Zrotation Xrotation Yrotation
                            End Site
                            {
                                OFFSET 13.236923 0.000000 0.000000
                            }
                        }
                    }
                }
            }
            JOINT RightShoulder
            {
                OFFSET -3.474926 18.396038 -0.314103
                CHANNELS 3 Zrotation Xrotation Yrotation
                JOINT RightArm
                {
                    OFFSET -10.880760 0.000000 0.000000
                    CHANNELS 3 Zrotation Xrotation Yrotation
                    JOINT RightForeArm
                    {
                        OFFSET -27.185530 0.000000 0.000000
                        CHANNELS 3 Zrotation Xrotation Yrotation
                        JOINT RightHand
                        {
                            OFFSET -27.825975 0.000000 0.000000
                            CHANNELS 3 Zrotation Xrotation Yrotation
                            End Site
                            {
                                OFFSET -13.236923 0.000000 0.000000
                            }
                        }
                    }
                }
            }
        }
    }
    JOINT LeftUpLeg
    {
        OFFSET 8.824615 0.000000 0.000000
        CHANNELS 3 Zrotation Xrotation Yrotation
        JOINT LeftLeg
        {
            OFFSET -0.000000 -35.111282 0.000000
            CHANNELS 3 Zrotation Xrotation Yrotation
            JOINT LeftFoot
            {
                OFFSET -0.000000 -42.324711 0.000000
                CHANNELS 3 Zrotation Xrotation Yrotation
                JOINT LeftToeBase
                {
                    OFFSET -0.000000 -5.735999 13.236923
                    CHANNELS 3 Zrotation Xrotation Yrotation
                    End Site
                    {
                        OFFSET -0.000000 0.000000 3.529846
                    }
                }
            }
        }
    }
    JOINT RightUpLeg
    {
        OFFSET -8.824615 0.000000 0.000000
        CHANNELS 3 Zrotation Xrotation Yrotation
        JOINT RightLeg
        {
            OFFSET -0.000000 -35.111282 0.000000
            CHANNELS 3 Zrotation Xrotation Yrotation
            JOINT RightFoot
            {
                OFFSET -0.000000 -42.324711 0.000000
                CHANNELS 3 Zrotation Xrotation Yrotation
                JOINT RightToeBase
                {
                    OFFSET -0.000000 -5.735999 13.236923
                    CHANNELS 3 Zrotation Xrotation Yrotation
                    End Site
                    {
                        OFFSET -0.000000 0.000000 3.529846
                    }
                }
            }
        }
    }
}
MOTION
Frames:    11
Frame Time:    0.008333
16.256176    80.881363    97.745110    -4.708012    -5.676204    -162.697433    -4.089949    -1.988411    2.084801    -5.418425    2.417752    2.270185    1.930048    4.137131    -2.581130    0.993338    -19.207571    -2.596755    1.293051    17.661610    1.746975    -62.865021    31.453281    -17.231504    -2.569160    -5.565732    -7.256499    20.418695    -4.801365    5.162918    4.482157    17.050005    -7.138320    50.079353    41.109295    28.076052    -1.898972    -10.536488    18.092785    -18.748343    -9.316938    -5.663114    53.135639    -60.872826    36.248837    -102.385086    78.551300    110.412628    -4.802822    -2.322271    -19.803707    -1.404076    -4.256483    1.568795    -9.563445    -11.237676    -8.929605    5.625144    21.158731    4.903353    -4.679850    -9.735498    -19.549644    0.130393    -0.624857    -0.141151    
16.351694    80.831734    97.733513    -4.869891    -5.612358    -162.249710    -4.281194    -1.875859    2.088207    -5.409945    2.498005    2.276315    1.903611    4.240347    -2.623648    1.064941    -19.241255    -2.614144    1.278621    17.770916    1.773995    -63.278492    31.247320    -16.614931    -2.717529    -5.411191    -7.037357    20.028053    -4.663853    5.191666    4.518814    17.029249    -7.164740    49.955563    40.867786    28.247288    -1.961006    -10.561946    18.231480    -18.837448    -9.331726    -5.627427    55.066139    -61.619846    38.083191    -106.990417    78.297462    114.927917    -4.885090    -2.267696    -20.020079    -1.415330    -4.253334    1.581359    -9.713248    -11.432740    -9.084164    5.656696    21.898335    4.815894    -4.899754    -10.021008    -19.823999    0.177042    -0.622733    -0.191649    
16.440619    80.773849    97.720734    -5.027268    -5.543403    -161.804031    -4.469047    -1.759135    2.083848    -5.391246    2.581243    2.273993    1.876232    4.337875    -2.666292    1.133913    -19.279819    -2.632415    1.262851    17.876778    1.795414    -63.679752    31.053141    -16.016714    -2.858613    -5.266918    -6.835978    19.643196    -4.537360    5.212509    4.556432    17.005678    -7.195431    49.832977    40.630493    28.415417    -2.026793    -10.595987    18.391987    -18.914299    -9.356411    -5.581133    56.984066    -62.315353    39.935421    -111.004478    78.032982    118.866257    -4.970048    -2.209068    -20.235640    -1.426332    -4.250550    1.593642    -9.870257    -11.632926    -9.257894    5.694805    22.663816    4.742754    -5.114208    -10.316789    -20.095282    0.212828    -0.613644    -0.230384    
16.522499    80.709236    97.707062    -5.178094    -5.470422    -161.364136    -4.650593    -1.640147    2.073295    -5.363880    2.667917    2.264878    1.848422    4.427569    -2.710248    1.201347    -19.323875    -2.652577    1.245568    17.977654    1.811175    -64.061813    30.876417    -15.447106    -2.990901    -5.134915    -6.654518    19.269472    -4.424130    5.222494    4.594738    16.979433    -7.228991    49.713219    40.401779    28.577768    -2.095340    -10.637959    18.572273    -18.979511    -9.390295    -5.525113    58.859665    -62.955383    41.772205    -114.445824    77.776382    122.247757    -5.056883    -2.146461    -20.447123    -1.437459    -4.247786    1.606066    -10.031888    -11.829093    -9.451658    5.738518    23.434265    4.690384    -5.320401    -10.614385    -20.365061    0.238816    -0.601201    -0.258512    
16.598257    80.638939    97.692894    -5.322282    -5.394464    -160.927933    -4.825642    -1.519824    2.058209    -5.329069    2.758934    2.250650    1.820386    4.509158    -2.757239    1.268993    -19.374390    -2.675833    1.226410    18.073261    1.821896    -64.424217    30.718796    -14.907351    -3.115098    -5.014495    -6.490810    18.906309    -4.323841    5.219425    4.633694    16.950857    -7.264555    49.595718    40.183025    28.734941    -2.166937    -10.687931    18.771534    -19.034739    -9.433157    -5.460071    60.691219    -63.546165    43.586411    -117.385025    77.537277    125.144478    -5.145865    -2.078099    -20.655584    -1.448636    -4.243532    1.618539    -10.197200    -12.017009    -9.666701    5.786890    24.200180    4.658888    -5.518531    -10.909760    -20.634544    0.258180    -0.588974    -0.279468    
16.668411    80.564331    97.678741    -5.458874    -5.317270    -160.495636    -4.993122    -1.399692    2.040193    -5.288189    2.853989    2.233011    1.792481    4.582399    -2.808532    1.338094    -19.431791    -2.703181    1.205284    18.163525    1.828300    -64.765457    30.580807    -14.401277    -3.231782    -4.904727    -6.342511    18.554485    -4.235681    5.201840    4.672632    16.920191    -7.300566    49.481445    39.975739    28.886324    -2.240951    -10.745255    18.987732    -19.082048    -9.484163    -5.387255    62.469967    -64.090744    45.363579    -119.865494    77.323135    127.602371    -5.236620    -2.002470    -20.862623    -1.459953    -4.237445    1.631165    -10.364112    -12.193560    -9.902963    5.837735    24.950722    4.644821    -5.707402    -11.198499    -20.899551    0.273592    -0.579343    -0.296146    
16.733032    80.487411    97.665176    -5.585900    -5.241162    -160.070541    -5.150937    -1.282393    2.021116    -5.242667    2.951977    2.213968    1.765030    4.646638    -2.864930    1.409528    -19.495625    -2.735206    1.181762    18.247864    1.831484    -65.082466    30.462521    -13.934905    -3.340836    -4.804555    -6.207284    18.216202    -4.158494    5.169014    4.711051    16.887981    -7.335642    49.371269    39.782837    29.030945    -2.316496    -10.809018    19.217083    -19.123049    -9.542151    -5.308526    64.177063    -64.588501    47.078857    -121.907791    77.140305    129.644836    -5.328246    -1.918238    -21.069876    -1.471115    -4.227816    1.643604    -10.529175    -12.355872    -10.156970    5.888679    25.671789    4.642425    -5.884542    -11.474939    -21.153145    0.285961    -0.572513    -0.309532    
16.792616    80.409630    97.652542    -5.702559    -5.167713    -159.653214    -5.298195    -1.169618    2.002782    -5.193796    3.051964    2.195333    1.738113    4.702882    -2.927385    1.484461    -19.565794    -2.772495    1.155456    18.327257    1.833093    -65.375374    30.361338    -13.510153    -3.443359    -4.711345    -6.081301    17.890690    -4.089495    5.121293    4.748016    16.855000    -7.368239    49.265892    39.604832    29.169334    -2.392935    -10.878268    19.456579    -19.159489    -9.606097    -5.224716    65.808174    -65.042450    48.722343    -123.546349    76.991478    131.308136    -5.420866    -1.823223    -21.280857    -1.481899    -4.214598    1.655610    -10.690293    -12.503246    -10.425838    5.938055    26.356773    4.645472    -6.049041    -11.736410    -21.390686    0.295511    -0.567884    -0.319868    
16.846937    80.333122    97.641144    -5.807298    -5.098790    -159.247849    -5.433163    -1.063892    1.986904    -5.142822    3.152121    2.178941    1.711838    4.751436    -2.996057    1.563367    -19.641178    -2.815090    1.126017    18.401546    1.834359    -65.642441    30.274683    -13.131194    -3.539350    -4.623047    -5.962437    17.579763    -4.026175    5.060221    4.782499    16.821993    -7.396770    49.166088    39.444645    29.300869    -2.469055    -10.951772    19.701092    -19.192398    -9.674703    -5.137645    67.341972    -65.451347    50.267948    -124.795105    76.880432    132.606430    -5.514663    -1.715610    -21.496529    -1.491334    -4.197473    1.666095    -10.844216    -12.633245    -10.703273    5.984410    26.993177    4.648143    -6.198392    -11.978659    -21.606321    0.302095    -0.564434    -0.326993    
16.895830    80.259773    97.631035    -5.899750    -5.035371    -158.857025    -5.554938    -0.966704    1.974780    -5.091159    3.250991    2.166213    1.686121    4.792669    -3.070907    1.646936    -19.719906    -2.862737    1.093472    18.470369    1.836588    -65.884369    30.198669    -12.798796    -3.629095    -4.536959    -5.848253    17.283833    -3.965399    4.988055    4.813625    16.789719    -7.419948    49.072350    39.303967    29.425993    -2.543906    -11.028125    19.945749    -19.222322    -9.746554    -5.048555    68.761353    -65.816101    51.696037    -125.676857    76.809982    133.561539    -5.610813    -1.592841    -21.718449    -1.498674    -4.177935    1.674230    -10.989096    -12.743249    -10.982026    6.028238    27.571615    4.644524    -6.330281    -12.199637    -21.796499    0.305407    -0.561274    -0.330576    
16.939358    80.190811    97.622063    -5.980618    -4.977641    -158.479523    -5.664081    -0.878913    1.967129    -5.039405    3.348346    2.157951    1.660683    4.827685    -3.152328    1.736301    -19.800652    -2.915407    1.057420    18.533953    1.840487    -66.104057    30.128286    -12.509780    -3.713668    -4.450313    -5.736338    17.000750    -3.904124    4.906556    4.840878    16.758640    -7.436739    48.983730    39.183071    29.546516    -2.616816    -11.106264    20.187584    -19.249243    -9.820658    -4.958381    70.059189    -66.141243    52.998669    -126.218391    76.782021    134.199280    -5.711934    -1.451124    -21.950497    -1.503423    -4.156725    1.679467    -11.124686    -12.830813    -11.257273    6.070918    28.087360    4.630084    -6.443587    -12.399344    -21.960646    0.305506    -0.558413    -0.330682    
